<?xml version="1.0" encoding="UTF-8" standalone="no"?>
<svg
   width="5706.6729"
   height="969.9129"
   viewBox="0 0 5706.6729 969.9129"
   fill="none"
   version="1.1"
   id="svg18"
   sodipodi:docname="service-protonmail.svg"
   inkscape:version="1.4.2 (ebf0e940d0, 2025-05-08)"
   xmlns:inkscape="http://www.inkscape.org/namespaces/inkscape"
   xmlns:sodipodi="http://sodipodi.sourceforge.net/DTD/sodipodi-0.dtd"
   xmlns="http://www.w3.org/2000/svg"
   xmlns:svg="http://www.w3.org/2000/svg">
  <sodipodi:namedview
     id="namedview18"
     pagecolor="#ffffff"
     bordercolor="#000000"
     borderopacity="0.25"
     inkscape:showpageshadow="2"
     inkscape:pageopacity="0.0"
     inkscape:pagecheckerboard="0"
     inkscape:deskcolor="#d1d1d1"
     inkscape:zoom="0.14276866"
     inkscape:cx="3232.5022"
     inkscape:cy="455.282"
     inkscape:window-width="1671"
     inkscape:window-height="1032"
     inkscape:window-x="0"
     inkscape:window-y="0"
     inkscape:window-maximized="1"
     inkscape:current-layer="svg18" />
  <path
     d="m 1624.032,623.80321 v 156.1543 h 109.0332 v -149.3315 c 0,-14.4918 5.69,-28.5018 15.9891,-38.7359 10.1821,-10.221 24.114,-16.0673 38.5275,-16.0673 h 111.8197 c 52.0948,0 102.1194,-20.8327 138.9543,-57.98 36.8218,-37.0302 57.5374,-87.33594 57.5374,-139.71076 0,-52.37477 -20.7156,-102.6793 -57.5374,-139.82795 -36.8349,-37.02886 -86.8595,-57.85637 -139.0715,-57.85637 H 1624.032 v 195.12711 h 109.0332 v -91.96086 h 158.9407 c 24.7128,0 48.345,9.86559 65.7923,27.40545 17.4344,17.53985 27.2519,41.29046 27.2519,66.13868 0,24.84689 -9.8175,48.59888 -27.2519,66.14255 -17.4473,17.53855 -41.0795,27.39505 -65.7923,27.39505 h -115.4523 c -19.9864,0 -39.8556,3.9062 -58.2666,11.7055 -18.5411,7.669 -35.2464,18.9967 -49.4256,33.2412 -14.1793,14.2573 -25.3248,31.184 -33.072,49.699 -7.7601,18.3979 -11.7574,38.3713 -11.7574,58.4618 z"
     fill="#ffffff"
     id="path1"
     style="stroke-width:1.30205" />
  <path
     d="m 2112.7417,779.95751 v -237.8836 c 0,-97.06757 56.3264,-174.29442 169.1095,-174.29442 18.0595,-0.24349 36.1057,1.70438 53.7876,5.96727 v 97.80835 c -12.8382,-0.8594 -23.8536,-0.8594 -29.0747,-0.8594 -59.7248,0 -85.4012,27.5383 -85.4012,83.3179 v 225.9439 z"
     fill="#ffffff"
     id="path2"
     style="stroke-width:1.30205" />
  <path
     d="m 2368.1118,578.25771 c 0,-119.3715 89.6457,-210.35583 214.4208,-210.35583 124.788,0 214.4338,90.98433 214.4338,210.35583 0,119.3585 -89.6458,211.2047 -214.4338,211.2047 -124.7751,0 -214.4208,-91.9634 -214.4208,-211.2047 z m 321.9958,0 c 0,-67.8496 -45.2982,-115.9601 -107.575,-115.9601 -62.381,0 -107.575,47.9933 -107.575,115.9601 0,68.696 45.3111,115.9472 107.575,115.9472 62.3939,0 107.575,-47.3815 107.575,-115.9472 z"
     fill="#ffffff"
     id="path3"
     style="stroke-width:1.30205" />
  <path
     d="m 3143.688,578.25771 c 0,-119.3715 89.6459,-210.35583 214.4209,-210.35583 124.6578,0 214.3036,90.98433 214.3036,210.35583 0,119.3585 -89.6458,211.2047 -214.3036,211.2047 -124.775,0 -214.4209,-91.9634 -214.4209,-211.2047 z m 321.8786,0 c 0,-67.8496 -45.3112,-115.9601 -107.5749,-115.9601 -62.2769,0 -107.5751,47.9933 -107.5751,115.9601 0,68.696 45.2982,115.9472 107.5751,115.9472 62.2637,0 107.5749,-47.3815 107.5749,-115.9472 z"
     fill="#ffffff"
     id="path4"
     style="stroke-width:1.30205" />
  <path
     d="m 3628.7519,779.95751 v -229.2251 c 0,-106.45518 67.4721,-182.95163 187.8983,-182.95163 119.5667,0 187.0518,76.36632 187.0518,182.95163 v 229.2251 h -107.588 v -220.7097 c 0,-59.191 -26.5227,-96.2211 -79.4638,-96.2211 -52.9412,0 -79.4769,36.913 -79.4769,96.2211 v 220.7097 z"
     fill="#ffffff"
     id="path5"
     style="stroke-width:1.30205" />
  <path
     d="m 3111.215,463.14391 h -117.0278 v 150.3081 c 0,52.3682 18.7755,76.3649 72.5629,76.3649 5.0911,0 17.9423,0 34.1658,-0.8463 v 88.422 c -22.1608,5.9762 -41.7957,9.5048 -63.2404,9.5048 -90.4921,0 -152.0268,-54.9333 -152.0268,-158.8365 v -164.917 h -72.6931 v -86.72145 h 18.1765 c 7.1482,0 14.2965,-1.4609 20.8327,-4.1405 6.6664,-2.802 12.6038,-6.82142 17.6818,-11.93716 5.0909,-5.11572 9.0882,-11.0843 11.8747,-17.78332 2.7863,-6.69903 4.1274,-13.76392 4.1274,-20.94992 v -81.72937 h 108.4214 v 136.54027 h 117.0277 v 86.72145 z"
     fill="#ffffff"
     id="path6"
     style="stroke-width:1.30205" />
  <path
     d="m 4217.9796,195.91733 h 152.3002 l 142.7693,350.34908 c 12.721,29.3612 23.6061,59.3212 32.7855,89.9062 h 1.4712 c 9.1665,-30.585 20.0645,-60.6622 32.7855,-89.9062 l 142.7563,-350.34908 h 152.3132 V 780.16581 H 4764.8125 V 388.75676 c -0.1172,-12.91371 0.4948,-25.8261 1.8359,-38.61738 h -1.8359 c -3.4244,13.76653 -7.9555,27.28826 -13.6975,40.32306 l -158.1854,382.88067 h -91.5078 L 4342.7546,390.46244 c -5.7421,-13.15719 -10.6378,-26.55653 -14.557,-40.32306 h -1.7056 c 1.2239,12.79128 1.8228,25.70367 1.7056,38.61738 v 391.52625 h -110.218 z"
     fill="#ffffff"
     id="path7"
     style="stroke-width:1.30205" />
  <path
     d="m 5252.5587,394.72658 c 31.9392,16.68964 58.3576,42.27099 76.0915,73.57343 18.9707,33.9964 28.5148,72.4848 27.7727,111.3509 v 200.5149 h -96.6378 l -6.8488,-60.1804 c -12.6038,21.8091 -31.0799,39.5821 -53.3449,51.5219 -23.8534,12.3043 -50.5192,18.515 -77.4325,17.9162 -34.387,0.3645 -68.1491,-8.7759 -97.6274,-26.4446 -29.856,-18.0203 -54.074,-43.8529 -70.2193,-74.5421 -17.6166,-33.8662 -26.4315,-71.5083 -25.6893,-109.6453 -0.4948,-37.5119 9.1663,-74.4249 27.8897,-107.0801 18.3459,-31.6684 44.8945,-57.73661 77.0681,-75.40146 33.2802,-18.39405 70.7141,-27.89636 108.7599,-27.4081 38.2931,-0.73175 76.2086,8.16122 110.2181,25.82473 z m -35.3506,269.70043 c 21.0411,-19.9733 31.4444,-48.1105 31.4444,-85.6355 1.3411,-30.6892 -9.544,-60.6622 -30.1033,-83.4481 -9.7783,-10.221 -21.5228,-18.2676 -34.6213,-23.8664 -13.0856,-5.6119 -27.0305,-8.4112 -41.2228,-8.4112 -14.1922,0 -28.2544,2.7993 -41.2227,8.4112 -13.0986,5.5988 -24.8431,13.6454 -34.6215,23.8664 -19.5697,23.3978 -30.3375,52.8761 -30.3375,83.3309 0,30.4549 10.7678,59.9332 30.3375,83.318 9.6612,10.4814 21.4057,18.6452 34.6215,24.244 13.0855,5.4816 27.2778,8.281 41.4701,7.9164 13.6976,0.2475 27.4081,-2.3045 40.2462,-7.4216 12.6038,-4.9999 24.2181,-12.669 34.0094,-22.3041 z"
     fill="#ffffff"
     id="path8"
     style="stroke-width:1.30205" />
  <path
     d="m 5416.0045,294.10455 c -6.4843,-5.96987 -11.6274,-13.15716 -15.1689,-21.19729 -3.5546,-8.03882 -5.2603,-16.68831 -5.1431,-25.45889 -0.1172,-8.77188 1.7187,-17.54245 5.1431,-25.70498 3.5415,-8.16122 8.6846,-15.4709 15.1689,-21.43947 12.8511,-12.66891 30.2204,-19.85619 48.3188,-19.85619 18.1114,0 35.4808,7.18728 48.3319,19.85619 6.4712,6.09097 11.6143,13.40064 15.0386,21.43947 3.4244,8.16253 5.2603,16.81202 5.1431,25.70498 0.1172,8.77058 -1.5885,17.42007 -5.1431,25.45889 -3.4243,8.04013 -8.5674,15.22742 -15.0386,21.19729 -12.9684,12.42543 -30.3506,19.36924 -48.3319,19.36924 -18.0984,0 -35.3505,-6.94381 -48.3188,-19.36924 z m 102.7574,486.06126 H 5410.1322 V 377.55003 h 108.6297 z"
     fill="#ffffff"
     id="path9"
     style="stroke-width:1.30205" />
  <path
     d="M 5706.673,780.16581 H 5597.9131 V 195.91733 h 108.7599 z"
     fill="#ffffff"
     id="path10"
     style="stroke-width:1.30205" />
  <path
     fill-rule="evenodd"
     clip-rule="evenodd"
     d="m 941.27846,182.19767 v 787.71524 h 130.56914 c 68.2922,0 123.6161,-56.1052 123.6161,-125.1786 V 27.867555 c 0,-23.5995704 -27.1086,-36.4507504 -45.0637,-21.3756804 z"
     fill="url(#paint0_linear_11862_387790)"
     id="path11"
     style="fill:url(#paint0_linear_11862_387790);stroke-width:1.30205" />
  <path
     fill-rule="evenodd"
     clip-rule="evenodd"
     d="m 759.14837,335.41585 -238.5477,213.38966 c -40.6759,36.327 -101.38637,37.1994 -143.0401,2.1092 L 0,233.10504 V 27.991255 C 0,4.3916746 27.116395,-8.5831954 45.072901,6.4918746 L 518.76477,404.61039 c 45.80596,38.55096 112.24932,38.55096 158.05528,0 z"
     fill="url(#paint1_linear_11862_387790)"
     id="path12"
     style="fill:url(#paint1_linear_11862_387790);stroke-width:1.30205" />
  <path
     d="m 941.27846,182.32137 -182.13009,153.09448 0.13021,-10e-4 -238.67791,213.39096 c -40.6759,36.327 -101.38637,37.1994 -143.0401,2.1092 L 0,233.10504 v 611.62927 c 0,69.0734 55.333018,125.1786 123.61357,125.1786 h 817.66489 z"
     fill="url(#paint2_radial_11862_387790)"
     id="path13"
     style="fill:url(#paint2_radial_11862_387790);stroke-width:1.30205" />
  <defs
     id="defs18">
    <linearGradient
       id="paint0_linear_11862_387790"
       x1="2964.04"
       y1="1887.39"
       x2="2776.29"
       y2="23.735901"
       gradientUnits="userSpaceOnUse"
       gradientTransform="matrix(1.3020452,0,0,1.3020452,-859.64545,-858.75757)">
      <stop
         offset="0.271"
         stop-color="#E3D9FF"
         id="stop13" />
      <stop
         offset="1"
         stop-color="#7341FF"
         id="stop14" />
    </linearGradient>
    <linearGradient
       id="paint1_linear_11862_387790"
       x1="1202.75"
       y1="1411.37"
       x2="820.92902"
       y2="-96.453003"
       gradientUnits="userSpaceOnUse"
       gradientTransform="matrix(1.3020452,0,0,1.3020452,-859.64545,-858.75757)">
      <stop
         stop-color="#E3D9FF"
         id="stop15" />
      <stop
         offset="1"
         stop-color="#7341FF"
         id="stop16" />
    </linearGradient>
    <radialGradient
       id="paint2_radial_11862_387790"
       cx="0"
       cy="0"
       r="1"
       gradientUnits="userSpaceOnUse"
       gradientTransform="matrix(1394.1259,0,0,1410.2583,1190.2556,118.72554)">
      <stop
         offset="0.5561"
         stop-color="#6D4AFF"
         id="stop17" />
      <stop
         offset="0.9944"
         stop-color="#AA8EFF"
         id="stop18" />
    </radialGradient>
  </defs>
</svg>
